TITLE ""
FILE "1Q_t_1220-1228.mp3" MP3
  TRACK 01 AUDIO
    TITLE "1Q_t_1220-1228_01"
    INDEX 01 00:00:00
  TRACK 02 AUDIO
    TITLE "1Q_t_1220-1228_02"
    INDEX 01 00:00:08
  TRACK 03 AUDIO
    TITLE "1Q_t_1220-1228_03"
    INDEX 01 00:01:37
  TRACK 04 AUDIO
    TITLE "1Q_t_1220-1228_04"
    INDEX 01 00:01:47
  TRACK 05 AUDIO
    TITLE "1Q_t_1220-1228_05"
    INDEX 01 00:05:23
  TRACK 06 AUDIO
    TITLE "1Q_t_1220-1228_06"
    INDEX 01 00:05:29
  TRACK 07 AUDIO
    TITLE "1Q_t_1220-1228_07"
    INDEX 01 00:09:64
  TRACK 08 AUDIO
    TITLE "1Q_t_1220-1228_08"
    INDEX 01 00:10:36
  TRACK 09 AUDIO
    TITLE "1Q_t_1220-1228_09"
    INDEX 01 00:11:45
  TRACK 10 AUDIO
    TITLE "1Q_t_1220-1228_10"
    INDEX 01 00:11:53
  TRACK 11 AUDIO
    TITLE "1Q_t_1220-1228_11"
    INDEX 01 00:15:00
  TRACK 12 AUDIO
    TITLE "1Q_t_1220-1228_12"
    INDEX 01 00:15:06
  TRACK 13 AUDIO
    TITLE "1Q_t_1220-1228_13"
    INDEX 01 00:20:70
  TRACK 14 AUDIO
    TITLE "1Q_t_1220-1228_14"
    INDEX 01 00:21:40
  TRACK 15 AUDIO
    TITLE "1Q_t_1220-1228_15"
    INDEX 01 00:22:45
  TRACK 16 AUDIO
    TITLE "1Q_t_1220-1228_16"
    INDEX 01 00:23:15
  TRACK 17 AUDIO
    TITLE "1Q_t_1220-1228_17"
    INDEX 01 00:24:26
  TRACK 18 AUDIO
    TITLE "1Q_t_1220-1228_18"
    INDEX 01 00:24:38
  TRACK 19 AUDIO
    TITLE "1Q_t_1220-1228_19"
    INDEX 01 00:26:74
  TRACK 20 AUDIO
    TITLE "1Q_t_1220-1228_20"
    INDEX 01 00:27:07
  TRACK 21 AUDIO
    TITLE "1Q_t_1220-1228_21"
    INDEX 01 00:33:04
  TRACK 22 AUDIO
    TITLE "1Q_t_1220-1228_22"
    INDEX 01 00:33:47
  TRACK 23 AUDIO
    TITLE "1Q_t_1220-1228_23"
    INDEX 01 00:34:52
  TRACK 24 AUDIO
    TITLE "1Q_t_1220-1228_24"
    INDEX 01 00:34:62
  TRACK 25 AUDIO
    TITLE "1Q_t_1220-1228_25"
    INDEX 01 00:36:57
  TRACK 26 AUDIO
    TITLE "1Q_t_1220-1228_26"
    INDEX 01 00:36:65
  TRACK 27 AUDIO
    TITLE "1Q_t_1220-1228_27"
    INDEX 01 00:42:62
  TRACK 28 AUDIO
    TITLE "1Q_t_1220-1228_28"
    INDEX 01 00:43:30
  TRACK 29 AUDIO
    TITLE "1Q_t_1220-1228_29"
    INDEX 01 00:44:57
  TRACK 30 AUDIO
    TITLE "1Q_t_1220-1228_30"
    INDEX 01 00:44:66
  TRACK 31 AUDIO
    TITLE "1Q_t_1220-1228_31"
    INDEX 01 00:47:02
  TRACK 32 AUDIO
    TITLE "1Q_t_1220-1228_32"
    INDEX 01 00:47:10
  TRACK 33 AUDIO
    TITLE "1Q_t_1220-1228_33"
    INDEX 01 00:51:53
  TRACK 34 AUDIO
    TITLE "1Q_t_1220-1228_34"
    INDEX 01 00:52:21
  TRACK 35 AUDIO
    TITLE "1Q_t_1220-1228_35"
    INDEX 01 00:53:28
  TRACK 36 AUDIO
    TITLE "1Q_t_1220-1228_36"
    INDEX 01 00:53:36
  TRACK 37 AUDIO
    TITLE "1Q_t_1220-1228_37"
    INDEX 01 00:55:54
  TRACK 38 AUDIO
    TITLE "1Q_t_1220-1228_38"
    INDEX 01 00:55:60
  TRACK 39 AUDIO
    TITLE "1Q_t_1220-1228_39"
    INDEX 01 01:00:42
  TRACK 40 AUDIO
    TITLE "1Q_t_1220-1228_40"
    INDEX 01 01:01:12
  TRACK 41 AUDIO
    TITLE "1Q_t_1220-1228_41"
    INDEX 01 01:02:23
  TRACK 42 AUDIO
    TITLE "1Q_t_1220-1228_42"
    INDEX 01 01:02:31
  TRACK 43 AUDIO
    TITLE "1Q_t_1220-1228_43"
    INDEX 01 01:05:10
  TRACK 44 AUDIO
    TITLE "1Q_t_1220-1228_44"
    INDEX 01 01:05:16
  TRACK 45 AUDIO
    TITLE "1Q_t_1220-1228_45"
    INDEX 01 01:10:07
  TRACK 46 AUDIO
    TITLE "1Q_t_1220-1228_46"
    INDEX 01 01:10:52
  TRACK 47 AUDIO
    TITLE "1Q_t_1220-1228_47"
    INDEX 01 01:11:57
  TRACK 48 AUDIO
    TITLE "1Q_t_1220-1228_48"
    INDEX 01 01:11:67
  TRACK 49 AUDIO
    TITLE "1Q_t_1220-1228_49"
    INDEX 01 01:14:07
  TRACK 50 AUDIO
    TITLE "1Q_t_1220-1228_50"
    INDEX 01 01:14:13
  TRACK 51 AUDIO
    TITLE "1Q_t_1220-1228_51"
    INDEX 01 01:18:55
  TRACK 52 AUDIO
    TITLE "1Q_t_1220-1228_52"
    INDEX 01 01:19:27
  TRACK 53 AUDIO
    TITLE "1Q_t_1220-1228_53"
    INDEX 01 01:20:27
  TRACK 54 AUDIO
    TITLE "1Q_t_1220-1228_54"
    INDEX 01 01:20:35
  TRACK 55 AUDIO
    TITLE "1Q_t_1220-1228_55"
    INDEX 01 01:21:42
  TRACK 56 AUDIO
    TITLE "1Q_t_1220-1228_56"
    INDEX 01 01:21:48
  TRACK 57 AUDIO
    TITLE "1Q_t_1220-1228_57"
    INDEX 01 01:27:04
